# xmcd
#
# Track frame offsets:
#	150
#	21236
#	35075
#	56239
#	77507
#	96049
#	118687
#	135928
#	150570
#	166235
#	189095
#
# Disc length: 2823 seconds
#
# Revision: 7
# Processed by: cddbd v1.5.2PL0 Copyright (c) Steve Scherf et al.
# Submitted via: audiograbber 1.83.01
#
DISCID=800b050b
DTITLE=Rüdiger Dahlke - Aggression als Aufgabe und Chance - CD 2
DYEAR=1900
DGENRE=Hörbuch
TTITLE0=Aggression als Aufgabe und Chance 15
TTITLE1=Aggression als Aufgabe und Chance 16
TTITLE2=Aggression als Aufgabe und Chance 17
TTITLE3=Aggression als Aufgabe und Chance 18
TTITLE4=Aggression als Aufgabe und Chance 19
TTITLE5=Aggression als Aufgabe und Chance 20
TTITLE6=Aggression als Aufgabe und Chance 21
TTITLE7=Aggression als Aufgabe und Chance 22
TTITLE8=Aggression als Aufgabe und Chance 23
TTITLE9=Aggression als Aufgabe und Chance 24
TTITLE10=Aggression als Aufgabe und Chance 25
EXTD=
EXTT0=
EXTT1=
EXTT2=
EXTT3=
EXTT4=
EXTT5=
EXTT6=
EXTT7=
EXTT8=
EXTT9=
EXTT10=
PLAYORDER=
